<svg xmlns="http://www.w3.org/2000/svg"  viewBox="0 0 100 100" width="500px" height="500px"><path fill="#f1bc19" d="M78 13A1 1 0 1 0 78 15A1 1 0 1 0 78 13Z"/><path fill="#f9dbd2" d="M50 12A38 38 0 1 0 50 88A38 38 0 1 0 50 12Z"/><path fill="#f1bc19" d="M84 12A4 4 0 1 0 84 20A4 4 0 1 0 84 12Z"/><path fill="#ee3e54" d="M14 24A2 2 0 1 0 14 28A2 2 0 1 0 14 24Z"/><path fill="#fbcd59" d="M78 75A2 2 0 1 0 78 79 2 2 0 1 0 78 75zM17 74A4 4 0 1 0 17 82 4 4 0 1 0 17 74z"/><path fill="#ee3e54" d="M24 81A2 2 0 1 0 24 85A2 2 0 1 0 24 81Z"/><path fill="#fff" d="M66.483 76.03399999999999A2.483 2.483 0 1 0 66.483 81 2.483 2.483 0 1 0 66.483 76.03399999999999zM16 47A1 1 0 1 0 16 49 1 1 0 1 0 16 47z"/><path fill="#f1bc19" d="M86 30A1 1 0 1 0 86 32A1 1 0 1 0 86 30Z"/><path fill="#fff" d="M80 64A2 2 0 1 0 80 68A2 2 0 1 0 80 64Z"/><g><path fill="#78a0cf" d="M74,40v20c0,1.91-0.89,3.61-2.28,4.71C70.7,65.52,69.41,66,68,66H32c-1.41,0-2.71-0.48-3.73-1.31 C26.89,63.6,26,61.9,26,60V40c0-2.06,1.05-3.89,2.64-4.95c0.05-0.05,0.11-0.09,0.16-0.12C29.72,34.34,30.82,34,32,34h36 c1.18,0,2.28,0.34,3.2,0.93c0.05,0.03,0.11,0.07,0.16,0.12C72.95,36.11,74,37.94,74,40z"/><path fill="#457faf" d="M71.72,64.71C70.7,65.52,69.41,66,68,66H32c-1.41,0-2.71-0.48-3.73-1.31L50,45.95L71.72,64.71z"/><path fill="#c5def0" d="M71.36,35.05L50,52.62L28.64,35.05c0.05-0.05,0.11-0.09,0.16-0.12C29.72,34.34,30.82,34,32,34h36 c1.18,0,2.28,0.34,3.2,0.93C71.25,34.96,71.31,35,71.36,35.05z"/><path fill="#472b29" d="M50 53c-.084 0-.169-.028-.238-.085L28.546 35.467c-.16-.131-.183-.368-.051-.528s.369-.183.528-.051L50 52.14l20.978-17.251c.159-.132.395-.109.528.051.132.16.108.396-.051.528L50.238 52.915C50.169 52.972 50.084 53 50 53zM28.226 65.131c-.105 0-.209-.044-.284-.13-.135-.157-.118-.394.039-.529l14.296-12.388c.155-.137.394-.121.529.036.136.156.121.393-.036.529l-3.727 3.255L28.471 65.04C28.4 65.102 28.313 65.131 28.226 65.131z"/><path fill="#472b29" d="M68,34.4c3.088,0,5.6,2.512,5.6,5.6v20c0,3.088-2.512,5.6-5.6,5.6H32c-3.088,0-5.6-2.512-5.6-5.6V40 c0-3.088,2.512-5.6,5.6-5.6H68L68,34.4z M68,33H32c-3.866,0-7,3.134-7,7v20c0,3.866,3.134,7,7,7h36c3.866,0,7-3.134,7-7V40 C75,36.134,71.866,33,68,33L68,33z"/><path fill="#472b29" d="M71.774,65.131c-0.087,0-0.175-0.03-0.246-0.092L57.239,52.65c-0.157-0.136-0.173-0.373-0.038-0.529 s0.373-0.172,0.529-0.038l14.29,12.389c0.157,0.136,0.173,0.373,0.038,0.529C71.983,65.087,71.879,65.131,71.774,65.131z"/></g></svg>