<svg xmlns="http://www.w3.org/2000/svg"  viewBox="0 0 100 100" width="500px" height="500px"><path fill="#ee3e54" d="M13,27c-1.105,0-2,0.895-2,2s0.895,2,2,2s2-0.895,2-2S14.105,27,13,27z"/><path fill="#f1bc19" d="M77,12c-0.552,0-1,0.448-1,1s0.448,1,1,1s1-0.448,1-1S77.552,12,77,12z"/><path fill="#fce0a2" d="M50,13c-20.435,0-37,16.565-37,37s16.565,37,37,37s37-16.565,37-37S70.435,13,50,13z"/><path fill="#f1bc19" d="M83,11c-2.209,0-4,1.791-4,4s1.791,4,4,4s4-1.791,4-4S85.209,11,83,11z"/><path fill="#ee3e54" d="M87,22c-1.105,0-2,0.895-2,2s0.895,2,2,2s2-0.895,2-2S88.105,22,87,22z"/><path fill="#fbcd59" d="M81,74c-1.105,0-2,0.895-2,2s0.895,2,2,2s2-0.895,2-2S82.105,74,81,74z M15,59c-2.209,0-4,1.791-4,4	c0,2.209,1.791,4,4,4s4-1.791,4-4C19,60.791,17.209,59,15,59z"/><path fill="#ee3e54" d="M25,85c-1.105,0-2,0.895-2,2s0.895,2,2,2s2-0.895,2-2S26.105,85,25,85z"/><path fill="#fff" d="M18.5,51c-1.381,0-2.5,1.119-2.5,2.5s1.119,2.5,2.5,2.5s2.5-1.119,2.5-2.5S19.881,51,18.5,51z"/><path fill="#f1bc19" d="M21,66c-0.552,0-1,0.448-1,1s0.448,1,1,1s1-0.448,1-1S21.552,66,21,66z"/><path fill="#fff" d="M80,33c-0.552,0-1,0.448-1,1s0.448,1,1,1s1-0.448,1-1S80.552,33,80,33z"/><path fill="#78a2d2" d="M35,72.3c-4,0-7.3-3.3-7.3-7.3V35c0-4,3.3-7.3,7.3-7.3h30c4,0,7.3,3.3,7.3,7.3v30 c0,4-3.3,7.3-7.3,7.3H35z"/><path fill="#472b29" d="M65,28.4c3.6,0,6.6,3,6.6,6.6v30c0,3.6-3,6.6-6.6,6.6H35c-3.6,0-6.6-3-6.6-6.6V35 c0-3.6,3-6.6,6.6-6.6H65 M65,27H35c-4.4,0-8,3.6-8,8v30c0,4.4,3.6,8,8,8h30c4.4,0,8-3.6,8-8V35C73,30.6,69.4,27,65,27L65,27z"/><path fill="#472b29" d="M68.5,47.4c-0.3,0-0.5-0.2-0.5-0.5V43c0-0.3,0.2-0.5,0.5-0.5S69,42.7,69,43v3.9 C69,47.2,68.8,47.4,68.5,47.4z"/><path fill="#472b29" d="M68.5,40.5c-0.3,0-0.5-0.2-0.5-0.5v-2c0-0.3,0.2-0.5,0.5-0.5S69,37.7,69,38v2 C69,40.3,68.8,40.5,68.5,40.5z"/><path fill="#472b29" d="M69,64c0,2.8-2.2,5-5,5H36c-2.8,0-5-2.2-5-5V36c0-2.8,2.2-5,5-5h25.4c0.3,0,0.5,0.2,0.5,0.5 S61.7,32,61.4,32H36c-2.2,0-4,1.8-4,4v28c0,2.2,1.8,4,4,4h28c2.2,0,4-1.8,4-4V49.6c0-0.3,0.2-0.5,0.5-0.5s0.5,0.2,0.5,0.5V64z"/><path fill="#fff" d="M54.446,52.634c0.414-0.677,1.166-1.074,1.958-1.117c1.539-0.084,2.897-0.046,4.199,0.016	c0.93,0.045,2.232,0.822,2.439,1.729c0.353,1.543,0.441,3.529,0.482,5.33c0.02,0.904-0.636,1.677-1.531,1.806	C58.511,60.903,49.268,61.268,43,55c-5.237-5.237-6.432-10.919-6.464-14.207c-0.016-1.601,1.336-3.176,2.935-3.267	c1.339-0.077,2.582-0.097,3.82-0.11c0.981-0.01,2.01,1.02,2.221,1.978c0.299,1.359,0.642,3.212,0.669,4.382	c0.009,0.398-0.19,0.967-0.42,1.292l-1.802,2.542C46.211,51.077,48.889,53.39,53,55L54.446,52.634z"/><path fill="#482b28" d="M58.366,61.139c-4.201,0-10.831-0.896-15.72-5.785c-5.894-5.895-6.587-12.143-6.611-14.556 c-0.019-1.904,1.573-3.666,3.406-3.771c1.4-0.08,2.719-0.1,3.844-0.112c0.007,0,0.014,0,0.021,0c1.281,0,2.446,1.245,2.694,2.371 c0.193,0.881,0.647,3.081,0.681,4.477c0.014,0.552-0.247,1.219-0.511,1.592l-1.604,2.264c2.168,3.242,4.66,5.291,8.229,6.76 l1.226-2.005c0.486-0.794,1.367-1.301,2.357-1.355c1.61-0.088,2.995-0.044,4.251,0.016c1.153,0.055,2.64,0.972,2.902,2.116 c0.362,1.587,0.453,3.636,0.494,5.431c0.026,1.153-0.816,2.147-1.959,2.312C61.467,60.98,60.13,61.139,58.366,61.139z M43.305,37.915c-0.003,0-0.006,0-0.01,0c-1.113,0.012-2.417,0.031-3.797,0.11c-1.303,0.075-2.477,1.391-2.463,2.763 c0.023,2.29,0.685,8.225,6.318,13.859c6.606,6.606,16.626,5.539,18.569,5.258c0.643-0.093,1.116-0.652,1.102-1.3 c-0.04-1.745-0.126-3.731-0.469-5.23c-0.148-0.648-1.239-1.305-1.976-1.34c-1.232-0.06-2.586-0.103-4.148-0.017 c-0.662,0.037-1.244,0.365-1.559,0.878l-1.665,2.724l-0.391-0.153c-4.091-1.603-6.865-3.871-9.276-7.584l-0.186-0.285l1.998-2.819 c0.181-0.255,0.334-0.718,0.327-0.99c-0.03-1.31-0.47-3.434-0.657-4.286C44.865,38.784,44.044,37.915,43.305,37.915z"/></svg>